<svg xmlns="http://www.w3.org/2000/svg" viewBox="0 0 175.216 175.552">
  <defs>
    <linearGradient id="a" x1="85.915" x2="86.535" y1="32.567" y2="137.092" gradientUnits="userSpaceOnUse">
      <stop offset="0" stop-color="#57d163"/>
      <stop offset="1" stop-color="#23b33a"/>
    </linearGradient>
  </defs>
  <path fill="#e5e5e5" d="M87.184 0C39.04 0 0 39.04 0 87.184c0 16.26 4.474 31.476 12.222 44.578L0 175.552l45.346-11.674A87.037 87.037 0 0 0 87.184 174.37c48.146 0 87.032-38.886 87.032-87.032C174.216 39.192 135.33.154 87.184.154z" opacity=".0"/>
  <path fill="url(#a)" d="M87.184 14.154c-40.166 0-72.878 32.712-72.878 72.878a72.54 72.54 0 0 0 11.112 38.644l-7.258 26.478 27.164-7.108A72.493 72.493 0 0 0 87.184 160.03c40.166 0 72.878-32.712 72.878-72.878s-32.712-73-72.878-73z"/>
  <path fill="#fff" fill-rule="evenodd" d="M63.36 51.77c-1.527-3.394-3.136-3.464-4.59-3.522-1.19-.05-2.55-.046-3.908-.046-1.358 0-3.567.51-5.434 2.55-1.866 2.04-7.13 6.965-7.13 16.984s7.3 19.704 8.318 21.062c1.018 1.358 14.09 22.584 34.794 30.744 17.2 6.782 20.706 5.43 24.442 5.092 3.736-.34 12.054-4.922 13.752-9.674 1.698-4.752 1.698-8.828 1.188-9.676-.51-.85-1.868-1.358-3.906-2.378-2.04-1.018-12.054-5.948-13.922-6.628-1.868-.68-3.226-1.018-4.584 1.02-1.358 2.04-5.264 6.628-6.452 7.986-1.188 1.36-2.376 1.53-4.414.51-2.04-1.018-8.606-3.17-16.39-10.118-6.058-5.406-10.148-12.084-11.336-14.122-1.188-2.04-.126-3.142 .894-4.16.916-.916 2.04-2.378 3.056-3.566 1.018-1.19 1.358-2.04 2.036-3.398.68-1.358.34-2.546-.17-3.566-.508-1.018-4.448-10.8-6.244-14.742z" clip-rule="evenodd"/>
</svg>
